# File created by Blade
# Date/Time:  Thu Jan 15 19:03:44 2015
#---------------------------------------------------------
:version 1.10
:name HOM
:units
  mass 1.0
  length 1.000000
  angle deg
:documentation
     Acclaim Skeleton File
:root
   axis xyz
   order TX TY TZ RX RY RZ
   position 0.000000 0.000000 0.000000
   orientation 0 0 0
:bonedata
   begin
      id 1
      name Spine_dum
      direction 0.000000 1.000000 0.000000
      length 4.354460
      axis 0.0 0.0 0.0 xyz
   end
   begin
      id 2
      name LeftUpLeg_dum
      direction 1.000000 0.000000 0.000000
      length 4.291077
      axis 0.0 0.0 0.0 xyz
   end
   begin
      id 3
      name RightUpLeg_dum
      direction -1.000000 0.000000 0.000000
      length 4.291077
      axis 0.0 0.0 0.0 xyz
   end
   begin
      id 4
      name Spine
      direction 0.000000 1.000000 0.000000
      length 0.000000
      axis 0.0 0.0 0.0 xyz
      dof rx ry rz
   end
   begin
      id 5
      name Spine_dum1
      direction 0.000000 1.000000 0.000000
      length 16.581769
      axis 0.0 0.0 0.0 xyz
   end
   begin
      id 6
      name Spine_dum2
      direction 0.000000 1.000000 0.000000
      length 12.903700
      axis 0.0 0.0 0.0 xyz
   end
   begin
      id 7
      name Spine_dum3
      direction 0.000000 1.000000 0.000000
      length 12.903700
      axis 0.0 0.0 0.0 xyz
   end
   begin
      id 8
      name Head
      direction 0.000000 1.000000 0.000000
      length 4.527550
      axis 0.0 0.0 0.0 xyz
      dof rx ry rz
   end
   begin
      id 9
      name LeftShoulder
      direction 1.000000 0.000000 0.000000
      length 6.942033
      axis 0.0 0.0 -90.0 xyz
      dof rx ry rz
   end
   begin
      id 10
      name LeftArm
      direction 1.000000 0.000000 0.000000
      length 11.010391
      axis 0.0 0.0 -90.0 xyz
      dof rx ry rz
   end
   begin
      id 11
      name LeftForeArm
      direction 1.000000 0.000000 0.000000
      length 8.054994
      axis 0.0 0.0 -90.0 xyz
      dof rz ry rx
   end
   begin
      id 12
      name LeftHand
      direction 0.000000 0.000000 0.000000
      length 0.000000
      axis 0.0 0.0 -90.0 xyz
      dof rx ry rz
   end
   begin
      id 13
      name LeftHand_dum1
      direction 0.000000 0.000000 0.000000
      length 0.000000
      axis 0.0 0.0 -90.0 xyz
   end
   begin
      id 14
      name LeftHand_dum2
      direction 1.000000 0.000000 0.000000
      length 3.937000
      axis 0.0 0.0 -90.0 xyz
   end
   begin
      id 15
      name LeftHandThumb1
      direction 0.000000 0.000000 1.000000
      length 3.937000
      axis 0.0 0.0 -90.0 xyz
      dof rx ry rz
   end
   begin
      id 16
      name RightShoulder
      direction -1.000000 0.000000 0.000000
      length 6.942033
      axis 0.0 0.0 90.0 xyz
      dof rx ry rz
   end
   begin
      id 17
      name RightArm
      direction -1.000000 0.000000 0.000000
      length 11.010391
      axis 0.0 0.0 90.0 xyz
      dof rx ry rz
   end
   begin
      id 18
      name RightForeArm
      direction -1.000000 0.000000 0.000000
      length 8.054994
      axis 0.0 0.0 90.0 xyz
      dof rz ry rx
   end
   begin
      id 19
      name RightHand
      direction 0.000000 0.000000 0.000000
      length 0.000000
      axis 0.0 0.0 90.0 xyz
      dof rx ry rz
   end
   begin
      id 20
      name RightHand_dum1
      direction 0.000000 0.000000 0.000000
      length 0.000000
      axis 0.0 0.0 90.0 xyz
   end
   begin
      id 21
      name RightHand_dum2
      direction -1.000000 0.000000 0.000000
      length 3.937000
      axis 0.0 0.0 90.0 xyz
   end
   begin
      id 22
      name RightHandThumb1
      direction 0.000000 0.000000 1.000000
      length 3.937000
      axis 0.0 0.0 90.0 xyz
      dof rx ry rz
   end
   begin
      id 23
      name LeftUpLeg
      direction 0.000000 -1.000000 0.000000
      length 17.039958
      axis 0.0 0.0 0.0 xyz
      dof rx ry rz
   end
   begin
      id 24
      name LeftLeg
      direction 0.000000 -1.000000 0.000000
      length 16.939743
      axis 0.0 0.0 0.0 xyz
      dof rx ry rz
   end
   begin
      id 25
      name LeftFoot
      direction 0.000000 -0.258819 0.965926
      length 5.235044
      axis 15.0 0.0 0.0 xyz
      dof rx ry rz
   end
   begin
      id 26
      name LeftToeBase
      direction 0.000000 0.000000 1.000000
      length 2.952750
      axis 0.0 0.0 0.0 xyz
      dof rx ry rz
   end
   begin
      id 27
      name RightUpLeg
      direction 0.000000 -1.000000 0.000000
      length 17.039958
      axis 0.0 0.0 0.0 xyz
      dof rx ry rz
   end
   begin
      id 28
      name RightLeg
      direction 0.000000 -1.000000 0.000000
      length 16.939743
      axis 0.0 0.0 0.0 xyz
      dof rx ry rz
   end
   begin
      id 29
      name RightFoot
      direction 0.000000 -0.258819 0.965926
      length 5.235044
      axis 15.0 0.0 0.0 xyz
      dof rx ry rz
   end
   begin
      id 30
      name RightToeBase
      direction 0.000000 0.000000 1.000000
      length 2.952750
      axis 0.0 0.0 0.0 xyz
      dof rx ry rz
   end
:hierarchy
   begin
      root Spine_dum LeftUpLeg_dum RightUpLeg_dum
      Spine_dum Spine
      LeftUpLeg_dum LeftUpLeg
      RightUpLeg_dum RightUpLeg
      Spine Spine_dum1 Spine_dum2 Spine_dum3
      Spine_dum1 Head
      Spine_dum2 LeftShoulder
      Spine_dum3 RightShoulder
      LeftShoulder LeftArm
      LeftArm LeftForeArm
      LeftForeArm LeftHand
      LeftHand LeftHand_dum1 LeftHand_dum2
      LeftHand_dum1 LeftHandThumb1
      RightShoulder RightArm
      RightArm RightForeArm
      RightForeArm RightHand
      RightHand RightHand_dum1 RightHand_dum2
      RightHand_dum1 RightHandThumb1
      LeftUpLeg LeftLeg
      LeftLeg LeftFoot
      LeftFoot LeftToeBase
      RightUpLeg RightLeg
      RightLeg RightFoot
      RightFoot RightToeBase
   end

# File created by Blade
# Date/Time:  Thu Jan 15 19:03:33 2015
# Frame Rate: 120.000 fps
#------------------------------------------------------
:FULLY-SPECIFIED
:DEGREES
1165
root 2.751000 35.685561 -11.518518 -177.671040 5.461694 -178.936786
Spine -16.706912 12.773719 -4.593590
Head 2.938136 -6.705279 7.744324
LeftShoulder 17.295410 -6.676338 11.238581
LeftArm 81.404593 -1.607315 -58.758297
LeftForeArm -0.000000 -11.598843 1.120856
LeftHand -8.371627 -0.000000 -38.435196
LeftHandThumb1 -26.253704 33.147579 0.000000
RightShoulder 6.293373 15.603000 -14.853999
RightArm 62.098781 3.760633 68.849615
RightForeArm -0.000000 -21.585172 15.219815
RightHand -4.387543 0.000000 36.741135
RightHandThumb1 -24.326973 -32.862282 -0.000000
LeftUpLeg 5.279424 14.151946 -0.482363
LeftLeg -3.164773 -0.000000 0.000000
LeftFoot -17.797010 25.595699 -10.661262
LeftToeBase 20.232499 -0.000000 -0.000000
RightUpLeg 3.840360 -8.606164 -0.157368
RightLeg -2.135911 -0.000000 0.000000
RightFoot -15.450727 -18.449342 10.660780
RightToeBase 19.924208 -0.000000 -0.000000
1166
root 2.747014 35.685950 -11.516280 -177.677134 5.478328 -178.939567
Spine -16.706251 12.784918 -4.607385
Head 2.975359 -6.737981 7.765294
LeftShoulder 17.329628 -6.720439 11.253157
LeftArm 81.346223 -1.664342 -59.398872
LeftForeArm -0.000000 -12.865933 1.193859
LeftHand -8.283792 -0.000000 -38.750833
LeftHandThumb1 -26.253704 33.147579 0.000000
RightShoulder 6.288118 15.637539 -14.880464
RightArm 62.063827 3.908374 69.343713
RightForeArm -0.000000 -20.236219 15.268633
RightHand -4.011859 0.000000 36.866838
RightHandThumb1 -24.326973 -32.862282 -0.000000
LeftUpLeg 5.283778 14.161136 -0.493279
LeftLeg -3.168787 -0.000000 0.000000
LeftFoot -17.790122 25.615868 -10.653694
LeftToeBase 20.243402 -0.000000 -0.000000
RightUpLeg 3.837493 -8.603469 -0.168275
RightLeg -2.132246 -0.000000 0.000000
RightFoot -15.444252 -18.433050 10.668367
RightToeBase 19.913488 -0.000000 -0.000000
1167
root 2.743214 35.686104 -11.514429 -177.674812 5.501635 -178.936987
Spine -16.715066 12.802433 -4.618288
Head 3.001768 -6.773877 7.786186
LeftShoulder 17.344544 -6.790793 11.276066
LeftArm 81.282352 -1.694463 -60.067876
LeftForeArm -0.000000 -14.121913 1.269827
LeftHand -8.354083 -0.000000 -39.187913
LeftHandThumb1 -26.253704 33.147579 0.000000
RightShoulder 6.288927 15.688078 -14.905927
RightArm 62.009581 4.038765 69.868314
RightForeArm 0.000000 -18.691350 15.340751
RightHand -3.918451 -0.000000 36.731415
RightHandThumb1 -24.326973 -32.862282 -0.000000
LeftUpLeg 5.281985 14.167826 -0.497551
LeftLeg -3.169429 -0.000000 0.000000
LeftFoot -17.800518 25.622428 -10.657969
LeftToeBase 20.239431 -0.000000 -0.000000
RightUpLeg 3.825062 -8.597428 -0.170227
RightLeg -2.126380 -0.000000 0.000000
RightFoot -15.441126 -18.427404 10.662916
RightToeBase 19.938751 -0.000000 -0.000000
1168
root 2.739521 35.686589 -11.511971 -177.675742 5.514147 -178.936966
Spine -16.717406 12.803495 -4.628365
Head 3.036888 -6.793688 7.805564
LeftShoulder 17.360199 -6.848204 11.274628
LeftArm 81.228186 -1.736907 -60.702856
LeftForeArm 0.000000 -15.123411 1.358651
LeftHand -8.295108 0.000000 -39.515714
LeftHandThumb1 -26.253704 33.147579 0.000000
RightShoulder 6.316200 15.725927 -14.925029
RightArm 61.951420 4.262712 70.502874
RightForeArm -0.000000 -17.546747 15.458476
RightHand -3.807564 0.000000 36.608247
RightHandThumb1 -24.326973 -32.862282 -0.000000
LeftUpLeg 5.275077 14.180530 -0.503619
LeftLeg -3.159919 -0.000000 0.000000
LeftFoot -17.793927 25.619365 -10.648309
LeftToeBase 20.231221 -0.000000 -0.000000
RightUpLeg 3.815103 -8.600805 -0.176416
RightLeg -2.117677 -0.000000 0.000000
RightFoot -15.424998 -18.418192 10.656413
RightToeBase 19.906718 -0.000000 -0.000000
1169
root 2.735149 35.686981 -11.509960 -177.678544 5.532088 -178.940078
Spine -16.717968 12.806304 -4.639322
Head 3.062659 -6.807337 7.829090
LeftShoulder 17.367993 -6.895822 11.280396
LeftArm 81.187066 -1.776229 -61.290398
LeftForeArm -0.000000 -16.112993 1.464481
LeftHand -8.245430 -0.000000 -39.730137
LeftHandThumb1 -26.253704 33.147579 0.000000
RightShoulder 6.326222 15.744301 -14.936758
RightArm 61.916668 4.443533 71.046860
RightForeArm 0.000000 -16.448091 15.609896
RightHand -3.511360 -0.000000 36.604903
RightHandThumb1 -24.326973 -32.862282 -0.000000
LeftUpLeg 5.272241 14.193892 -0.514969
LeftLeg -3.151325 -0.000000 0.000000
LeftFoot -17.802276 25.616669 -10.662088
LeftToeBase 20.223912 -0.000000 -0.000000
RightUpLeg 3.810092 -8.606930 -0.186499
RightLeg -2.120382 -0.000000 0.000000
RightFoot -15.415789 -18.395769 10.657071
RightToeBase 19.790562 -0.000000 -0.000000
1170
root 2.730943 35.687065 -11.508034 -177.686260 5.549860 -178.940138
Spine -16.710515 12.812887 -4.639807
Head 3.087414 -6.843702 7.835050
LeftShoulder 17.358055 -6.951903 11.270240
LeftArm 81.158120 -1.775293 -61.739522
LeftForeArm -0.000000 -17.222350 1.540739
LeftHand -8.216339 0.000000 -39.926761
LeftHandThumb1 -26.253704 33.147579 0.000000
RightShoulder 6.348841 15.796580 -14.949620
RightArm 61.874967 4.634161 71.623284
RightForeArm -0.000000 -15.411024 15.701027
RightHand -3.244448 -0.000000 36.439246
RightHandThumb1 -24.326973 -32.862282 -0.000000
LeftUpLeg 5.279699 14.208094 -0.521741
LeftLeg -3.155123 -0.000000 0.000000
LeftFoot -17.797279 25.628428 -10.653198
LeftToeBase 20.269198 -0.000000 -0.000000
RightUpLeg 3.804172 -8.585097 -0.195672
RightLeg -2.100234 -0.000000 0.000000
RightFoot -15.421484 -18.393169 10.662816
RightToeBase 19.937665 -0.000000 -0.000000
1171
root 2.725831 35.687518 -11.505561 -177.688160 5.564097 -178.939850
Spine -16.706406 12.811386 -4.635119
Head 3.106182 -6.854068 7.838537
LeftShoulder 17.362099 -6.996191 11.260256
LeftArm 81.117402 -1.786869 -62.123500
LeftForeArm -0.000000 -18.475713 1.628585
LeftHand -8.153543 0.000000 -39.918496
LeftHandThumb1 -26.253704 33.147579 0.000000
RightShoulder 6.361967 15.864322 -14.952941
RightArm 61.817963 4.799390 72.158838
RightForeArm 0.000000 -14.425964 15.812376
RightHand -2.936750 -0.000000 36.511231
RightHandThumb1 -24.326973 -32.862282 -0.000000
LeftUpLeg 5.269886 14.209737 -0.531189
LeftLeg -3.137504 -0.000000 0.000000
LeftFoot -17.809188 25.633998 -10.653587
LeftToeBase 20.247323 -0.000000 -0.000000
RightUpLeg 3.790041 -8.598089 -0.202157
RightLeg -2.086893 -0.000000 0.000000
RightFoot -15.419118 -18.377416 10.664555
RightToeBase 19.942365 -0.000000 -0.000000
1172
root 2.721446 35.687546 -11.503256 -177.690622 5.581870 -178.938379
Spine -16.709780 12.810172 -4.633977
Head 3.151678 -6.871208 7.851230
LeftShoulder 17.374382 -7.035926 11.263016
LeftArm 81.056651 -1.811736 -62.487410
LeftForeArm -0.000000 -19.867691 1.715699
LeftHand -8.056718 0.000000 -40.057157
LeftHandThumb1 -26.253704 33.147579 0.000000
RightShoulder 6.390965 15.922706 -14.948508
RightArm 61.763955 4.962438 72.645987
RightForeArm -0.000000 -13.298124 15.868145
RightHand -2.582861 0.000000 36.486952
RightHandThumb1 -24.326973 -32.862282 -0.000000
LeftUpLeg 5.269469 14.222250 -0.537010
LeftLeg -3.137798 -0.000000 0.000000
LeftFoot -17.807652 25.641322 -10.651665
LeftToeBase 20.228374 -0.000000 -0.000000
RightUpLeg 3.781734 -8.564845 -0.209828
RightLeg -2.073783 -0.000000 0.000000
RightFoot -15.417574 -18.380587 10.659590
RightToeBase 19.960722 -0.000000 -0.000000
1173
root 2.716402 35.687245 -11.501627 -177.705610 5.590484 -178.941347
Spine -16.703163 12.803981 -4.634807
Head 3.206935 -6.891102 7.865047
LeftShoulder 17.397279 -7.066953 11.280391
LeftArm 80.988476 -1.856512 -62.945182
LeftForeArm -0.000000 -21.335465 1.784189
LeftHand -7.948391 -0.000000 -40.231915
LeftHandThumb1 -26.253704 33.147579 0.000000
RightShoulder 6.416380 15.970482 -14.939483
RightArm 61.711365 5.136539 73.117170
RightForeArm -0.000000 -12.069101 15.906105
RightHand -2.143074 -0.000000 36.536225
RightHandThumb1 -24.326973 -32.862282 -0.000000
LeftUpLeg 5.281579 14.232208 -0.545595
LeftLeg -3.135785 -0.000000 0.000000
LeftFoot -17.813359 25.638463 -10.655670
LeftToeBase 20.242069 -0.000000 -0.000000
RightUpLeg 3.786994 -8.572181 -0.221202
RightLeg -2.068931 -0.000000 0.000000
RightFoot -15.418124 -18.376499 10.664909
RightToeBase 19.970385 -0.000000 -0.000000
